<?xml version="1.0" encoding="iso-8859-1"?>
<!-- Generator: Adobe Illustrator 16.0.0, SVG Export Plug-In . SVG Version: 6.00 Build 0)  -->
<!DOCTYPE svg PUBLIC "-//W3C//DTD SVG 1.1//EN" "http://www.w3.org/Graphics/SVG/1.1/DTD/svg11.dtd">
<svg version="1.1" id="Capa_1" xmlns="http://www.w3.org/2000/svg" xmlns:xlink="http://www.w3.org/1999/xlink" x="0px" y="0px"
	 width="612.099px" height="612.1px" viewBox="0 0 612.099 612.1" style="enable-background:new 0 0 612.099 612.1;"
	 xml:space="preserve">
<g>
	<g>
		<path d="M325.049,443.7c0-1.9,0-1.9,0-3.8V344.3c0-11.5-7.6-19.1-19.1-19.1s-19.1,7.6-19.1,19.1V439.9c0,1.899,0,1.899,0,3.8
			c-23,7.7-38.2,28.7-38.2,53.5c0,32.5,24.9,57.399,57.4,57.399c32.5,0,57.4-24.899,57.4-57.399
			C363.35,472.4,348.049,451.4,325.049,443.7z"/>
		<path d="M382.45,411.2c0-3.8,0-5.7,0-9.601V76.5c0-42.1-34.4-76.5-76.5-76.5c-42.1,0-76.5,34.4-76.5,76.5v325.1
			c0,3.801,0,5.7,0,9.601c-23,21-38.2,51.6-38.2,86.1c0,63.101,51.6,114.8,114.8,114.8c63.2,0,114.8-51.6,114.8-114.8
			C420.75,462.8,405.45,432.2,382.45,411.2z M305.95,573.8c-42.1,0-76.5-34.399-76.5-76.5c0-28.7,15.3-53.5,38.2-66.899V76.5
			c0-21,17.2-38.2,38.2-38.2c21,0,38.2,17.2,38.2,38.2v353.8c23,13.4,38.2,38.2,38.2,66.9C382.45,539.3,348.049,573.8,305.95,573.8z
			"/>
	</g>
</g>
<g>
</g>
<g>
</g>
<g>
</g>
<g>
</g>
<g>
</g>
<g>
</g>
<g>
</g>
<g>
</g>
<g>
</g>
<g>
</g>
<g>
</g>
<g>
</g>
<g>
</g>
<g>
</g>
<g>
</g>
</svg>
